<svg width="17" height="17" viewBox="0 0 17 17" fill="none" xmlns="http://www.w3.org/2000/svg">
<path fill-rule="evenodd" clip-rule="evenodd" d="M8.76465 0.544189C9.31693 0.544189 9.76465 0.991905 9.76465 1.54419V15.5442C9.76465 16.0965 9.31693 16.5442 8.76465 16.5442C8.21236 16.5442 7.76465 16.0965 7.76465 15.5442V1.54419C7.76465 0.991905 8.21236 0.544189 8.76465 0.544189Z" fill="white"/>
<path fill-rule="evenodd" clip-rule="evenodd" d="M8.05754 0.837083C8.44807 0.446558 9.08123 0.446558 9.47176 0.837083L16.4718 7.83708C16.8623 8.22761 16.8623 8.86077 16.4718 9.2513C16.0812 9.64182 15.4481 9.64182 15.0575 9.2513L8.76465 2.9584L2.47176 9.2513C2.08123 9.64182 1.44807 9.64182 1.05754 9.2513C0.667017 8.86077 0.667017 8.22761 1.05754 7.83708L8.05754 0.837083Z" fill="white"/>
</svg>
